ISO-10303-21;
HEADER;
/* Generated by software containing ST-Developer
 * from STEP Tools, Inc. (www.steptools.com) 
 */

FILE_DESCRIPTION(
/* description */ (''),
/* implementation_level */ '2;1');

FILE_NAME(
/* name */ 'lid--36.9.stp',
/* time_stamp */ '2025-12-21T20:08:28+01:00',
/* author */ ('fionn'),
/* organization */ (''),
/* preprocessor_version */ 'ST-DEVELOPER v20',
/* originating_system */ 'Autodesk Inventor 2025',
/* authorisation */ '');

FILE_SCHEMA (('AUTOMOTIVE_DESIGN { 1 0 10303 214 3 1 1 }'));
ENDSEC;

DATA;
#10=MECHANICAL_DESIGN_GEOMETRIC_PRESENTATION_REPRESENTATION('',(#13),#664);
#11=SHAPE_REPRESENTATION_RELATIONSHIP('SRR','None',#671,#12);
#12=ADVANCED_BREP_SHAPE_REPRESENTATION('',(#14),#663);
#13=STYLED_ITEM('',(#681),#14);
#14=MANIFOLD_SOLID_BREP('Volumenk\X\F6rper1',#387);
#15=CYLINDRICAL_SURFACE('',#425,1.7);
#16=CYLINDRICAL_SURFACE('',#429,1.7);
#17=CYLINDRICAL_SURFACE('',#433,1.7);
#18=CYLINDRICAL_SURFACE('',#437,1.7);
#19=CYLINDRICAL_SURFACE('',#439,18.45);
#20=CYLINDRICAL_SURFACE('',#444,17.5);
#21=CONICAL_SURFACE('',#423,2.65,0.785398163397448);
#22=CONICAL_SURFACE('',#427,2.65,0.785398163397448);
#23=CONICAL_SURFACE('',#431,2.65,0.785398163397448);
#24=CONICAL_SURFACE('',#435,2.65,0.785398163397448);
#25=FACE_BOUND('',#76,.T.);
#26=FACE_BOUND('',#77,.T.);
#27=FACE_BOUND('',#78,.T.);
#28=FACE_BOUND('',#79,.T.);
#29=FACE_BOUND('',#80,.T.);
#30=FACE_BOUND('',#96,.T.);
#31=FACE_BOUND('',#100,.T.);
#32=FACE_BOUND('',#101,.T.);
#33=FACE_BOUND('',#102,.T.);
#34=FACE_BOUND('',#103,.T.);
#35=FACE_BOUND('',#104,.T.);
#36=CIRCLE('',#413,3.6);
#37=CIRCLE('',#414,3.6);
#38=CIRCLE('',#415,3.6);
#39=CIRCLE('',#416,3.6);
#40=CIRCLE('',#417,17.5);
#41=CIRCLE('',#424,1.7);
#42=CIRCLE('',#426,1.7);
#43=CIRCLE('',#428,1.7);
#44=CIRCLE('',#430,1.7);
#45=CIRCLE('',#432,1.7);
#46=CIRCLE('',#434,1.7);
#47=CIRCLE('',#436,1.7);
#48=CIRCLE('',#438,1.7);
#49=CIRCLE('',#440,18.45);
#50=CIRCLE('',#441,18.45);
#51=CIRCLE('',#443,17.5);
#52=FACE_OUTER_BOUND('',#73,.T.);
#53=FACE_OUTER_BOUND('',#74,.T.);
#54=FACE_OUTER_BOUND('',#75,.T.);
#55=FACE_OUTER_BOUND('',#81,.T.);
#56=FACE_OUTER_BOUND('',#82,.T.);
#57=FACE_OUTER_BOUND('',#83,.T.);
#58=FACE_OUTER_BOUND('',#84,.T.);
#59=FACE_OUTER_BOUND('',#85,.T.);
#60=FACE_OUTER_BOUND('',#86,.T.);
#61=FACE_OUTER_BOUND('',#87,.T.);
#62=FACE_OUTER_BOUND('',#88,.T.);
#63=FACE_OUTER_BOUND('',#89,.T.);
#64=FACE_OUTER_BOUND('',#90,.T.);
#65=FACE_OUTER_BOUND('',#91,.T.);
#66=FACE_OUTER_BOUND('',#92,.T.);
#67=FACE_OUTER_BOUND('',#93,.T.);
#68=FACE_OUTER_BOUND('',#94,.T.);
#69=FACE_OUTER_BOUND('',#95,.T.);
#70=FACE_OUTER_BOUND('',#97,.T.);
#71=FACE_OUTER_BOUND('',#98,.T.);
#72=FACE_OUTER_BOUND('',#99,.T.);
#73=EDGE_LOOP('',(#255,#256,#257,#258));
#74=EDGE_LOOP('',(#259,#260,#261,#262));
#75=EDGE_LOOP('',(#263,#264,#265,#266,#267,#268,#269,#270));
#76=EDGE_LOOP('',(#271));
#77=EDGE_LOOP('',(#272));
#78=EDGE_LOOP('',(#273));
#79=EDGE_LOOP('',(#274));
#80=EDGE_LOOP('',(#275));
#81=EDGE_LOOP('',(#276,#277,#278,#279));
#82=EDGE_LOOP('',(#280,#281,#282,#283));
#83=EDGE_LOOP('',(#284,#285,#286,#287));
#84=EDGE_LOOP('',(#288,#289,#290,#291));
#85=EDGE_LOOP('',(#292,#293,#294,#295));
#86=EDGE_LOOP('',(#296,#297,#298,#299));
#87=EDGE_LOOP('',(#300,#301,#302,#303));
#88=EDGE_LOOP('',(#304,#305,#306,#307));
#89=EDGE_LOOP('',(#308,#309,#310,#311));
#90=EDGE_LOOP('',(#312,#313,#314,#315));
#91=EDGE_LOOP('',(#316,#317,#318,#319));
#92=EDGE_LOOP('',(#320,#321,#322,#323));
#93=EDGE_LOOP('',(#324,#325,#326,#327));
#94=EDGE_LOOP('',(#328,#329,#330,#331));
#95=EDGE_LOOP('',(#332));
#96=EDGE_LOOP('',(#333));
#97=EDGE_LOOP('',(#334,#335,#336,#337));
#98=EDGE_LOOP('',(#338,#339,#340,#341));
#99=EDGE_LOOP('',(#342,#343,#344,#345,#346,#347,#348,#349));
#100=EDGE_LOOP('',(#350));
#101=EDGE_LOOP('',(#351));
#102=EDGE_LOOP('',(#352));
#103=EDGE_LOOP('',(#353));
#104=EDGE_LOOP('',(#354));
#105=LINE('',#561,#139);
#106=LINE('',#563,#140);
#107=LINE('',#565,#141);
#108=LINE('',#566,#142);
#109=LINE('',#569,#143);
#110=LINE('',#571,#144);
#111=LINE('',#572,#145);
#112=LINE('',#575,#146);
#113=LINE('',#577,#147);
#114=LINE('',#579,#148);
#115=LINE('',#581,#149);
#116=LINE('',#583,#150);
#117=LINE('',#584,#151);
#118=LINE('',#597,#152);
#119=LINE('',#598,#153);
#120=LINE('',#601,#154);
#121=LINE('',#602,#155);
#122=LINE('',#605,#156);
#123=LINE('',#606,#157);
#124=LINE('',#609,#158);
#125=LINE('',#610,#159);
#126=LINE('',#613,#160);
#127=LINE('',#614,#161);
#128=LINE('',#617,#162);
#129=LINE('',#621,#163);
#130=LINE('',#625,#164);
#131=LINE('',#629,#165);
#132=LINE('',#633,#166);
#133=LINE('',#637,#167);
#134=LINE('',#641,#168);
#135=LINE('',#645,#169);
#136=LINE('',#651,#170);
#137=LINE('',#657,#171);
#138=LINE('',#659,#172);
#139=VECTOR('',#451,10.);
#140=VECTOR('',#452,10.);
#141=VECTOR('',#453,10.);
#142=VECTOR('',#454,10.);
#143=VECTOR('',#457,10.);
#144=VECTOR('',#458,10.);
#145=VECTOR('',#459,10.);
#146=VECTOR('',#462,10.);
#147=VECTOR('',#463,10.);
#148=VECTOR('',#464,10.);
#149=VECTOR('',#465,10.);
#150=VECTOR('',#466,10.);
#151=VECTOR('',#467,10.);
#152=VECTOR('',#480,10.);
#153=VECTOR('',#481,10.);
#154=VECTOR('',#484,10.);
#155=VECTOR('',#485,10.);
#156=VECTOR('',#488,10.);
#157=VECTOR('',#489,10.);
#158=VECTOR('',#492,10.);
#159=VECTOR('',#493,10.);
#160=VECTOR('',#496,10.);
#161=VECTOR('',#497,10.);
#162=VECTOR('',#500,2.65);
#163=VECTOR('',#505,1.7);
#164=VECTOR('',#510,2.65);
#165=VECTOR('',#515,1.7);
#166=VECTOR('',#520,2.65);
#167=VECTOR('',#525,1.7);
#168=VECTOR('',#530,2.65);
#169=VECTOR('',#535,1.7);
#170=VECTOR('',#542,18.45);
#171=VECTOR('',#551,17.5);
#172=VECTOR('',#554,10.);
#173=VERTEX_POINT('',#559);
#174=VERTEX_POINT('',#560);
#175=VERTEX_POINT('',#562);
#176=VERTEX_POINT('',#564);
#177=VERTEX_POINT('',#568);
#178=VERTEX_POINT('',#570);
#179=VERTEX_POINT('',#574);
#180=VERTEX_POINT('',#576);
#181=VERTEX_POINT('',#578);
#182=VERTEX_POINT('',#580);
#183=VERTEX_POINT('',#582);
#184=VERTEX_POINT('',#585);
#185=VERTEX_POINT('',#587);
#186=VERTEX_POINT('',#589);
#187=VERTEX_POINT('',#591);
#188=VERTEX_POINT('',#593);
#189=VERTEX_POINT('',#596);
#190=VERTEX_POINT('',#600);
#191=VERTEX_POINT('',#604);
#192=VERTEX_POINT('',#608);
#193=VERTEX_POINT('',#612);
#194=VERTEX_POINT('',#616);
#195=VERTEX_POINT('',#620);
#196=VERTEX_POINT('',#624);
#197=VERTEX_POINT('',#628);
#198=VERTEX_POINT('',#632);
#199=VERTEX_POINT('',#636);
#200=VERTEX_POINT('',#640);
#201=VERTEX_POINT('',#644);
#202=VERTEX_POINT('',#648);
#203=VERTEX_POINT('',#650);
#204=VERTEX_POINT('',#654);
#205=EDGE_CURVE('',#173,#174,#105,.T.);
#206=EDGE_CURVE('',#174,#175,#106,.T.);
#207=EDGE_CURVE('',#175,#176,#107,.T.);
#208=EDGE_CURVE('',#176,#173,#108,.T.);
#209=EDGE_CURVE('',#176,#177,#109,.T.);
#210=EDGE_CURVE('',#178,#177,#110,.T.);
#211=EDGE_CURVE('',#173,#178,#111,.T.);
#212=EDGE_CURVE('',#179,#175,#112,.T.);
#213=EDGE_CURVE('',#180,#179,#113,.T.);
#214=EDGE_CURVE('',#181,#180,#114,.T.);
#215=EDGE_CURVE('',#182,#181,#115,.T.);
#216=EDGE_CURVE('',#183,#182,#116,.T.);
#217=EDGE_CURVE('',#177,#183,#117,.T.);
#218=EDGE_CURVE('',#184,#184,#36,.T.);
#219=EDGE_CURVE('',#185,#185,#37,.T.);
#220=EDGE_CURVE('',#186,#186,#38,.T.);
#221=EDGE_CURVE('',#187,#187,#39,.T.);
#222=EDGE_CURVE('',#188,#188,#40,.T.);
#223=EDGE_CURVE('',#189,#178,#118,.T.);
#224=EDGE_CURVE('',#183,#189,#119,.T.);
#225=EDGE_CURVE('',#190,#182,#120,.T.);
#226=EDGE_CURVE('',#189,#190,#121,.T.);
#227=EDGE_CURVE('',#191,#190,#122,.T.);
#228=EDGE_CURVE('',#181,#191,#123,.T.);
#229=EDGE_CURVE('',#192,#180,#124,.T.);
#230=EDGE_CURVE('',#191,#192,#125,.T.);
#231=EDGE_CURVE('',#193,#192,#126,.T.);
#232=EDGE_CURVE('',#179,#193,#127,.T.);
#233=EDGE_CURVE('',#184,#194,#128,.T.);
#234=EDGE_CURVE('',#194,#194,#41,.T.);
#235=EDGE_CURVE('',#194,#195,#129,.T.);
#236=EDGE_CURVE('',#195,#195,#42,.T.);
#237=EDGE_CURVE('',#185,#196,#130,.T.);
#238=EDGE_CURVE('',#196,#196,#43,.T.);
#239=EDGE_CURVE('',#196,#197,#131,.T.);
#240=EDGE_CURVE('',#197,#197,#44,.T.);
#241=EDGE_CURVE('',#186,#198,#132,.T.);
#242=EDGE_CURVE('',#198,#198,#45,.T.);
#243=EDGE_CURVE('',#198,#199,#133,.T.);
#244=EDGE_CURVE('',#199,#199,#46,.T.);
#245=EDGE_CURVE('',#187,#200,#134,.T.);
#246=EDGE_CURVE('',#200,#200,#47,.T.);
#247=EDGE_CURVE('',#200,#201,#135,.T.);
#248=EDGE_CURVE('',#201,#201,#48,.T.);
#249=EDGE_CURVE('',#202,#202,#49,.T.);
#250=EDGE_CURVE('',#202,#203,#136,.T.);
#251=EDGE_CURVE('',#203,#203,#50,.T.);
#252=EDGE_CURVE('',#204,#204,#51,.T.);
#253=EDGE_CURVE('',#204,#188,#137,.T.);
#254=EDGE_CURVE('',#193,#174,#138,.T.);
#255=ORIENTED_EDGE('',*,*,#205,.T.);
#256=ORIENTED_EDGE('',*,*,#206,.T.);
#257=ORIENTED_EDGE('',*,*,#207,.T.);
#258=ORIENTED_EDGE('',*,*,#208,.T.);
#259=ORIENTED_EDGE('',*,*,#208,.F.);
#260=ORIENTED_EDGE('',*,*,#209,.T.);
#261=ORIENTED_EDGE('',*,*,#210,.F.);
#262=ORIENTED_EDGE('',*,*,#211,.F.);
#263=ORIENTED_EDGE('',*,*,#207,.F.);
#264=ORIENTED_EDGE('',*,*,#212,.F.);
#265=ORIENTED_EDGE('',*,*,#213,.F.);
#266=ORIENTED_EDGE('',*,*,#214,.F.);
#267=ORIENTED_EDGE('',*,*,#215,.F.);
#268=ORIENTED_EDGE('',*,*,#216,.F.);
#269=ORIENTED_EDGE('',*,*,#217,.F.);
#270=ORIENTED_EDGE('',*,*,#209,.F.);
#271=ORIENTED_EDGE('',*,*,#218,.T.);
#272=ORIENTED_EDGE('',*,*,#219,.T.);
#273=ORIENTED_EDGE('',*,*,#220,.T.);
#274=ORIENTED_EDGE('',*,*,#221,.T.);
#275=ORIENTED_EDGE('',*,*,#222,.F.);
#276=ORIENTED_EDGE('',*,*,#223,.T.);
#277=ORIENTED_EDGE('',*,*,#210,.T.);
#278=ORIENTED_EDGE('',*,*,#217,.T.);
#279=ORIENTED_EDGE('',*,*,#224,.T.);
#280=ORIENTED_EDGE('',*,*,#224,.F.);
#281=ORIENTED_EDGE('',*,*,#216,.T.);
#282=ORIENTED_EDGE('',*,*,#225,.F.);
#283=ORIENTED_EDGE('',*,*,#226,.F.);
#284=ORIENTED_EDGE('',*,*,#227,.T.);
#285=ORIENTED_EDGE('',*,*,#225,.T.);
#286=ORIENTED_EDGE('',*,*,#215,.T.);
#287=ORIENTED_EDGE('',*,*,#228,.T.);
#288=ORIENTED_EDGE('',*,*,#228,.F.);
#289=ORIENTED_EDGE('',*,*,#214,.T.);
#290=ORIENTED_EDGE('',*,*,#229,.F.);
#291=ORIENTED_EDGE('',*,*,#230,.F.);
#292=ORIENTED_EDGE('',*,*,#231,.T.);
#293=ORIENTED_EDGE('',*,*,#229,.T.);
#294=ORIENTED_EDGE('',*,*,#213,.T.);
#295=ORIENTED_EDGE('',*,*,#232,.T.);
#296=ORIENTED_EDGE('',*,*,#218,.F.);
#297=ORIENTED_EDGE('',*,*,#233,.T.);
#298=ORIENTED_EDGE('',*,*,#234,.F.);
#299=ORIENTED_EDGE('',*,*,#233,.F.);
#300=ORIENTED_EDGE('',*,*,#234,.T.);
#301=ORIENTED_EDGE('',*,*,#235,.T.);
#302=ORIENTED_EDGE('',*,*,#236,.F.);
#303=ORIENTED_EDGE('',*,*,#235,.F.);
#304=ORIENTED_EDGE('',*,*,#219,.F.);
#305=ORIENTED_EDGE('',*,*,#237,.T.);
#306=ORIENTED_EDGE('',*,*,#238,.F.);
#307=ORIENTED_EDGE('',*,*,#237,.F.);
#308=ORIENTED_EDGE('',*,*,#238,.T.);
#309=ORIENTED_EDGE('',*,*,#239,.T.);
#310=ORIENTED_EDGE('',*,*,#240,.F.);
#311=ORIENTED_EDGE('',*,*,#239,.F.);
#312=ORIENTED_EDGE('',*,*,#220,.F.);
#313=ORIENTED_EDGE('',*,*,#241,.T.);
#314=ORIENTED_EDGE('',*,*,#242,.F.);
#315=ORIENTED_EDGE('',*,*,#241,.F.);
#316=ORIENTED_EDGE('',*,*,#242,.T.);
#317=ORIENTED_EDGE('',*,*,#243,.T.);
#318=ORIENTED_EDGE('',*,*,#244,.F.);
#319=ORIENTED_EDGE('',*,*,#243,.F.);
#320=ORIENTED_EDGE('',*,*,#221,.F.);
#321=ORIENTED_EDGE('',*,*,#245,.T.);
#322=ORIENTED_EDGE('',*,*,#246,.F.);
#323=ORIENTED_EDGE('',*,*,#245,.F.);
#324=ORIENTED_EDGE('',*,*,#246,.T.);
#325=ORIENTED_EDGE('',*,*,#247,.T.);
#326=ORIENTED_EDGE('',*,*,#248,.F.);
#327=ORIENTED_EDGE('',*,*,#247,.F.);
#328=ORIENTED_EDGE('',*,*,#249,.F.);
#329=ORIENTED_EDGE('',*,*,#250,.T.);
#330=ORIENTED_EDGE('',*,*,#251,.T.);
#331=ORIENTED_EDGE('',*,*,#250,.F.);
#332=ORIENTED_EDGE('',*,*,#251,.F.);
#333=ORIENTED_EDGE('',*,*,#252,.F.);
#334=ORIENTED_EDGE('',*,*,#252,.T.);
#335=ORIENTED_EDGE('',*,*,#253,.T.);
#336=ORIENTED_EDGE('',*,*,#222,.T.);
#337=ORIENTED_EDGE('',*,*,#253,.F.);
#338=ORIENTED_EDGE('',*,*,#206,.F.);
#339=ORIENTED_EDGE('',*,*,#254,.F.);
#340=ORIENTED_EDGE('',*,*,#232,.F.);
#341=ORIENTED_EDGE('',*,*,#212,.T.);
#342=ORIENTED_EDGE('',*,*,#205,.F.);
#343=ORIENTED_EDGE('',*,*,#211,.T.);
#344=ORIENTED_EDGE('',*,*,#223,.F.);
#345=ORIENTED_EDGE('',*,*,#226,.T.);
#346=ORIENTED_EDGE('',*,*,#227,.F.);
#347=ORIENTED_EDGE('',*,*,#230,.T.);
#348=ORIENTED_EDGE('',*,*,#231,.F.);
#349=ORIENTED_EDGE('',*,*,#254,.T.);
#350=ORIENTED_EDGE('',*,*,#236,.T.);
#351=ORIENTED_EDGE('',*,*,#240,.T.);
#352=ORIENTED_EDGE('',*,*,#244,.T.);
#353=ORIENTED_EDGE('',*,*,#248,.T.);
#354=ORIENTED_EDGE('',*,*,#249,.T.);
#355=PLANE('',#410);
#356=PLANE('',#411);
#357=PLANE('',#412);
#358=PLANE('',#418);
#359=PLANE('',#419);
#360=PLANE('',#420);
#361=PLANE('',#421);
#362=PLANE('',#422);
#363=PLANE('',#442);
#364=PLANE('',#445);
#365=PLANE('',#446);
#366=ADVANCED_FACE('',(#52),#355,.T.);
#367=ADVANCED_FACE('',(#53),#356,.T.);
#368=ADVANCED_FACE('',(#54,#25,#26,#27,#28,#29),#357,.F.);
#369=ADVANCED_FACE('',(#55),#358,.T.);
#370=ADVANCED_FACE('',(#56),#359,.T.);
#371=ADVANCED_FACE('',(#57),#360,.T.);
#372=ADVANCED_FACE('',(#58),#361,.T.);
#373=ADVANCED_FACE('',(#59),#362,.T.);
#374=ADVANCED_FACE('',(#60),#21,.F.);
#375=ADVANCED_FACE('',(#61),#15,.F.);
#376=ADVANCED_FACE('',(#62),#22,.F.);
#377=ADVANCED_FACE('',(#63),#16,.F.);
#378=ADVANCED_FACE('',(#64),#23,.F.);
#379=ADVANCED_FACE('',(#65),#17,.F.);
#380=ADVANCED_FACE('',(#66),#24,.F.);
#381=ADVANCED_FACE('',(#67),#18,.F.);
#382=ADVANCED_FACE('',(#68),#19,.F.);
#383=ADVANCED_FACE('',(#69,#30),#363,.T.);
#384=ADVANCED_FACE('',(#70),#20,.F.);
#385=ADVANCED_FACE('',(#71),#364,.T.);
#386=ADVANCED_FACE('',(#72,#31,#32,#33,#34,#35),#365,.T.);
#387=CLOSED_SHELL('',(#366,#367,#368,#369,#370,#371,#372,#373,#374,#375,
#376,#377,#378,#379,#380,#381,#382,#383,#384,#385,#386));
#388=DERIVED_UNIT_ELEMENT(#391,1.);
#389=DERIVED_UNIT_ELEMENT(#666,-3.);
#390=DIMENSIONAL_EXPONENTS(0.,1.,0.,0.,0.,0.,0.);
#391=(
CONVERSION_BASED_UNIT('gram',#393)
MASS_UNIT()
NAMED_UNIT(#390)
);
#392=(
MASS_UNIT()
NAMED_UNIT(*)
SI_UNIT(.KILO.,.GRAM.)
);
#393=MASS_MEASURE_WITH_UNIT(MASS_MEASURE(0.001),#392);
#394=DERIVED_UNIT((#388,#389));
#395=MEASURE_REPRESENTATION_ITEM('density measure',
POSITIVE_RATIO_MEASURE(1.),#394);
#396=PROPERTY_DEFINITION_REPRESENTATION(#401,#398);
#397=PROPERTY_DEFINITION_REPRESENTATION(#402,#399);
#398=REPRESENTATION('material name',(#400),#663);
#399=REPRESENTATION('density',(#395),#663);
#400=DESCRIPTIVE_REPRESENTATION_ITEM('Generisch','Generisch');
#401=PROPERTY_DEFINITION('material property','material name',#673);
#402=PROPERTY_DEFINITION('material property','density of part',#673);
#403=DATE_TIME_ROLE('creation_date');
#404=APPLIED_DATE_AND_TIME_ASSIGNMENT(#405,#403,(#673));
#405=DATE_AND_TIME(#406,#407);
#406=CALENDAR_DATE(2025,4,10);
#407=LOCAL_TIME(0,0,0.,#408);
#408=COORDINATED_UNIVERSAL_TIME_OFFSET(0,0,.BEHIND.);
#409=AXIS2_PLACEMENT_3D('',#557,#447,#448);
#410=AXIS2_PLACEMENT_3D('',#558,#449,#450);
#411=AXIS2_PLACEMENT_3D('',#567,#455,#456);
#412=AXIS2_PLACEMENT_3D('',#573,#460,#461);
#413=AXIS2_PLACEMENT_3D('',#586,#468,#469);
#414=AXIS2_PLACEMENT_3D('',#588,#470,#471);
#415=AXIS2_PLACEMENT_3D('',#590,#472,#473);
#416=AXIS2_PLACEMENT_3D('',#592,#474,#475);
#417=AXIS2_PLACEMENT_3D('',#594,#476,#477);
#418=AXIS2_PLACEMENT_3D('',#595,#478,#479);
#419=AXIS2_PLACEMENT_3D('',#599,#482,#483);
#420=AXIS2_PLACEMENT_3D('',#603,#486,#487);
#421=AXIS2_PLACEMENT_3D('',#607,#490,#491);
#422=AXIS2_PLACEMENT_3D('',#611,#494,#495);
#423=AXIS2_PLACEMENT_3D('',#615,#498,#499);
#424=AXIS2_PLACEMENT_3D('',#618,#501,#502);
#425=AXIS2_PLACEMENT_3D('',#619,#503,#504);
#426=AXIS2_PLACEMENT_3D('',#622,#506,#507);
#427=AXIS2_PLACEMENT_3D('',#623,#508,#509);
#428=AXIS2_PLACEMENT_3D('',#626,#511,#512);
#429=AXIS2_PLACEMENT_3D('',#627,#513,#514);
#430=AXIS2_PLACEMENT_3D('',#630,#516,#517);
#431=AXIS2_PLACEMENT_3D('',#631,#518,#519);
#432=AXIS2_PLACEMENT_3D('',#634,#521,#522);
#433=AXIS2_PLACEMENT_3D('',#635,#523,#524);
#434=AXIS2_PLACEMENT_3D('',#638,#526,#527);
#435=AXIS2_PLACEMENT_3D('',#639,#528,#529);
#436=AXIS2_PLACEMENT_3D('',#642,#531,#532);
#437=AXIS2_PLACEMENT_3D('',#643,#533,#534);
#438=AXIS2_PLACEMENT_3D('',#646,#536,#537);
#439=AXIS2_PLACEMENT_3D('',#647,#538,#539);
#440=AXIS2_PLACEMENT_3D('',#649,#540,#541);
#441=AXIS2_PLACEMENT_3D('',#652,#543,#544);
#442=AXIS2_PLACEMENT_3D('',#653,#545,#546);
#443=AXIS2_PLACEMENT_3D('',#655,#547,#548);
#444=AXIS2_PLACEMENT_3D('',#656,#549,#550);
#445=AXIS2_PLACEMENT_3D('',#658,#552,#553);
#446=AXIS2_PLACEMENT_3D('',#660,#555,#556);
#447=DIRECTION('axis',(0.,0.,1.));
#448=DIRECTION('refdir',(1.,0.,0.));
#449=DIRECTION('center_axis',(0.707106781186548,0.,-0.707106781186548));
#450=DIRECTION('ref_axis',(-0.707106781186548,0.,-0.707106781186548));
#451=DIRECTION('',(0.707106781186548,0.,0.707106781186548));
#452=DIRECTION('',(0.,-1.,0.));
#453=DIRECTION('',(-0.707106781186548,0.,-0.707106781186548));
#454=DIRECTION('',(0.,1.,0.));
#455=DIRECTION('center_axis',(-1.04985628806161E-16,0.,-1.));
#456=DIRECTION('ref_axis',(-1.,0.,1.04985628806161E-16));
#457=DIRECTION('',(-1.,0.,1.04985628806161E-16));
#458=DIRECTION('',(0.,-1.,0.));
#459=DIRECTION('',(-1.,0.,1.04985628806161E-16));
#460=DIRECTION('center_axis',(0.,1.,0.));
#461=DIRECTION('ref_axis',(0.,0.,1.));
#462=DIRECTION('',(0.,0.,-1.));
#463=DIRECTION('',(0.707106781186547,0.,-0.707106781186548));
#464=DIRECTION('',(1.,0.,-3.14956886418484E-16));
#465=DIRECTION('',(0.707106781186548,0.,0.707106781186548));
#466=DIRECTION('',(2.09971257612323E-16,0.,1.));
#467=DIRECTION('',(-0.707106781186548,0.,0.707106781186548));
#468=DIRECTION('center_axis',(0.,1.,0.));
#469=DIRECTION('ref_axis',(1.,0.,0.));
#470=DIRECTION('center_axis',(0.,1.,0.));
#471=DIRECTION('ref_axis',(1.,0.,0.));
#472=DIRECTION('center_axis',(0.,1.,0.));
#473=DIRECTION('ref_axis',(1.,0.,0.));
#474=DIRECTION('center_axis',(0.,1.,0.));
#475=DIRECTION('ref_axis',(1.,0.,0.));
#476=DIRECTION('center_axis',(0.,-1.,0.));
#477=DIRECTION('ref_axis',(1.,0.,0.));
#478=DIRECTION('center_axis',(-0.707106781186548,0.,-0.707106781186548));
#479=DIRECTION('ref_axis',(-0.707106781186548,0.,0.707106781186548));
#480=DIRECTION('',(0.707106781186548,0.,-0.707106781186548));
#481=DIRECTION('',(0.,1.,0.));
#482=DIRECTION('center_axis',(-1.,0.,2.09971257612323E-16));
#483=DIRECTION('ref_axis',(2.09971257612323E-16,0.,1.));
#484=DIRECTION('',(0.,-1.,0.));
#485=DIRECTION('',(2.09971257612323E-16,0.,1.));
#486=DIRECTION('center_axis',(-0.707106781186548,0.,0.707106781186548));
#487=DIRECTION('ref_axis',(0.707106781186548,0.,0.707106781186548));
#488=DIRECTION('',(-0.707106781186548,0.,-0.707106781186548));
#489=DIRECTION('',(0.,1.,0.));
#490=DIRECTION('center_axis',(3.14956886418484E-16,0.,1.));
#491=DIRECTION('ref_axis',(1.,0.,-3.14956886418484E-16));
#492=DIRECTION('',(0.,-1.,0.));
#493=DIRECTION('',(1.,0.,-3.14956886418484E-16));
#494=DIRECTION('center_axis',(0.707106781186548,0.,0.707106781186547));
#495=DIRECTION('ref_axis',(0.707106781186547,0.,-0.707106781186548));
#496=DIRECTION('',(-0.707106781186547,0.,0.707106781186548));
#497=DIRECTION('',(0.,1.,0.));
#498=DIRECTION('center_axis',(0.,-1.,0.));
#499=DIRECTION('ref_axis',(1.,0.,0.));
#500=DIRECTION('',(0.707106781186547,0.707106781186548,8.65956056235493E-17));
#501=DIRECTION('center_axis',(0.,-1.,0.));
#502=DIRECTION('ref_axis',(1.,0.,0.));
#503=DIRECTION('center_axis',(0.,-1.,0.));
#504=DIRECTION('ref_axis',(1.,0.,0.));
#505=DIRECTION('',(0.,1.,0.));
#506=DIRECTION('center_axis',(0.,-1.,0.));
#507=DIRECTION('ref_axis',(1.,0.,0.));
#508=DIRECTION('center_axis',(0.,-1.,0.));
#509=DIRECTION('ref_axis',(1.,0.,0.));
#510=DIRECTION('',(0.707106781186547,0.707106781186548,8.65956056235493E-17));
#511=DIRECTION('center_axis',(0.,-1.,0.));
#512=DIRECTION('ref_axis',(1.,0.,0.));
#513=DIRECTION('center_axis',(0.,-1.,0.));
#514=DIRECTION('ref_axis',(1.,0.,0.));
#515=DIRECTION('',(0.,1.,0.));
#516=DIRECTION('center_axis',(0.,-1.,0.));
#517=DIRECTION('ref_axis',(1.,0.,0.));
#518=DIRECTION('center_axis',(0.,-1.,0.));
#519=DIRECTION('ref_axis',(1.,0.,0.));
#520=DIRECTION('',(0.707106781186547,0.707106781186548,8.65956056235493E-17));
#521=DIRECTION('center_axis',(0.,-1.,0.));
#522=DIRECTION('ref_axis',(1.,0.,0.));
#523=DIRECTION('center_axis',(0.,-1.,0.));
#524=DIRECTION('ref_axis',(1.,0.,0.));
#525=DIRECTION('',(0.,1.,0.));
#526=DIRECTION('center_axis',(0.,-1.,0.));
#527=DIRECTION('ref_axis',(1.,0.,0.));
#528=DIRECTION('center_axis',(0.,-1.,0.));
#529=DIRECTION('ref_axis',(1.,0.,0.));
#530=DIRECTION('',(0.707106781186547,0.707106781186548,8.65956056235493E-17));
#531=DIRECTION('center_axis',(0.,-1.,0.));
#532=DIRECTION('ref_axis',(1.,0.,0.));
#533=DIRECTION('center_axis',(0.,-1.,0.));
#534=DIRECTION('ref_axis',(1.,0.,0.));
#535=DIRECTION('',(0.,1.,0.));
#536=DIRECTION('center_axis',(0.,-1.,0.));
#537=DIRECTION('ref_axis',(1.,0.,0.));
#538=DIRECTION('center_axis',(0.,-1.,0.));
#539=DIRECTION('ref_axis',(1.,0.,0.));
#540=DIRECTION('center_axis',(0.,-1.,0.));
#541=DIRECTION('ref_axis',(1.,0.,0.));
#542=DIRECTION('',(0.,-1.,0.));
#543=DIRECTION('center_axis',(0.,-1.,0.));
#544=DIRECTION('ref_axis',(1.,0.,0.));
#545=DIRECTION('center_axis',(0.,1.,0.));
#546=DIRECTION('ref_axis',(0.,0.,1.));
#547=DIRECTION('center_axis',(0.,1.,0.));
#548=DIRECTION('ref_axis',(1.,0.,0.));
#549=DIRECTION('center_axis',(0.,1.,0.));
#550=DIRECTION('ref_axis',(1.,0.,0.));
#551=DIRECTION('',(0.,-1.,0.));
#552=DIRECTION('center_axis',(1.,0.,0.));
#553=DIRECTION('ref_axis',(0.,0.,-1.));
#554=DIRECTION('',(0.,0.,-1.));
#555=DIRECTION('center_axis',(0.,1.,0.));
#556=DIRECTION('ref_axis',(0.,0.,1.));
#557=CARTESIAN_POINT('',(0.,0.,0.));
#558=CARTESIAN_POINT('Origin',(19.15,0.,-19.15));
#559=CARTESIAN_POINT('',(17.15,7.7,-21.15));
#560=CARTESIAN_POINT('',(21.15,7.7,-17.15));
#561=CARTESIAN_POINT('',(19.15,7.7,-19.15));
#562=CARTESIAN_POINT('',(21.15,0.,-17.15));
#563=CARTESIAN_POINT('',(21.15,0.,-17.15));
#564=CARTESIAN_POINT('',(17.15,0.,-21.15));
#565=CARTESIAN_POINT('',(19.15,0.,-19.15));
#566=CARTESIAN_POINT('',(17.15,0.,-21.15));
#567=CARTESIAN_POINT('Origin',(21.15,0.,-21.15));
#568=CARTESIAN_POINT('',(-17.15,0.,-21.15));
#569=CARTESIAN_POINT('',(21.15,0.,-21.15));
#570=CARTESIAN_POINT('',(-17.15,7.7,-21.15));
#571=CARTESIAN_POINT('',(-17.15,0.,-21.15));
#572=CARTESIAN_POINT('',(21.15,7.7,-21.15));
#573=CARTESIAN_POINT('Origin',(0.,0.,6.66133814775094E-15));
#574=CARTESIAN_POINT('',(21.15,0.,17.15));
#575=CARTESIAN_POINT('',(21.15,0.,21.15));
#576=CARTESIAN_POINT('',(17.15,0.,21.15));
#577=CARTESIAN_POINT('',(19.15,0.,19.15));
#578=CARTESIAN_POINT('',(-17.15,0.,21.15));
#579=CARTESIAN_POINT('',(-21.15,0.,21.15));
#580=CARTESIAN_POINT('',(-21.15,0.,17.15));
#581=CARTESIAN_POINT('',(-19.15,0.,19.15));
#582=CARTESIAN_POINT('',(-21.15,0.,-17.15));
#583=CARTESIAN_POINT('',(-21.15,0.,-21.15));
#584=CARTESIAN_POINT('',(-19.15,0.,-19.15));
#585=CARTESIAN_POINT('',(11.9,-1.11022302462516E-15,15.5));
#586=CARTESIAN_POINT('Origin',(15.5,0.,15.5));
#587=CARTESIAN_POINT('',(-19.1,8.32667268468867E-16,15.5));
#588=CARTESIAN_POINT('Origin',(-15.5,0.,15.5));
#589=CARTESIAN_POINT('',(-19.1,8.32667268468867E-16,-15.5));
#590=CARTESIAN_POINT('Origin',(-15.5,0.,-15.5));
#591=CARTESIAN_POINT('',(11.9,-1.11022302462516E-15,-15.5));
#592=CARTESIAN_POINT('Origin',(15.5,0.,-15.5));
#593=CARTESIAN_POINT('',(-17.5,0.,2.14313189850787E-15));
#594=CARTESIAN_POINT('Origin',(0.,0.,0.));
#595=CARTESIAN_POINT('Origin',(-19.15,0.,-19.15));
#596=CARTESIAN_POINT('',(-21.15,7.7,-17.15));
#597=CARTESIAN_POINT('',(-19.15,7.7,-19.15));
#598=CARTESIAN_POINT('',(-21.15,0.,-17.15));
#599=CARTESIAN_POINT('Origin',(-21.15,0.,-21.15));
#600=CARTESIAN_POINT('',(-21.15,7.7,17.15));
#601=CARTESIAN_POINT('',(-21.15,0.,17.15));
#602=CARTESIAN_POINT('',(-21.15,7.7,-21.15));
#603=CARTESIAN_POINT('Origin',(-19.15,0.,19.15));
#604=CARTESIAN_POINT('',(-17.15,7.7,21.15));
#605=CARTESIAN_POINT('',(-19.15,7.7,19.15));
#606=CARTESIAN_POINT('',(-17.15,0.,21.15));
#607=CARTESIAN_POINT('Origin',(-21.15,0.,21.15));
#608=CARTESIAN_POINT('',(17.15,7.7,21.15));
#609=CARTESIAN_POINT('',(17.15,0.,21.15));
#610=CARTESIAN_POINT('',(-21.15,7.7,21.15));
#611=CARTESIAN_POINT('Origin',(19.15,0.,19.15));
#612=CARTESIAN_POINT('',(21.15,7.7,17.15));
#613=CARTESIAN_POINT('',(19.15,7.7,19.15));
#614=CARTESIAN_POINT('',(21.15,0.,17.15));
#615=CARTESIAN_POINT('Origin',(15.5,0.95,15.5));
#616=CARTESIAN_POINT('',(13.8,1.9,15.5));
#617=CARTESIAN_POINT('',(12.85,0.95,15.5));
#618=CARTESIAN_POINT('Origin',(15.5,1.9,15.5));
#619=CARTESIAN_POINT('Origin',(15.5,10.,15.5));
#620=CARTESIAN_POINT('',(13.8,7.7,15.5));
#621=CARTESIAN_POINT('',(13.8,10.,15.5));
#622=CARTESIAN_POINT('Origin',(15.5,7.7,15.5));
#623=CARTESIAN_POINT('Origin',(-15.5,0.95,15.5));
#624=CARTESIAN_POINT('',(-17.2,1.9,15.5));
#625=CARTESIAN_POINT('',(-18.15,0.95,15.5));
#626=CARTESIAN_POINT('Origin',(-15.5,1.9,15.5));
#627=CARTESIAN_POINT('Origin',(-15.5,10.,15.5));
#628=CARTESIAN_POINT('',(-17.2,7.7,15.5));
#629=CARTESIAN_POINT('',(-17.2,10.,15.5));
#630=CARTESIAN_POINT('Origin',(-15.5,7.7,15.5));
#631=CARTESIAN_POINT('Origin',(-15.5,0.95,-15.5));
#632=CARTESIAN_POINT('',(-17.2,1.9,-15.5));
#633=CARTESIAN_POINT('',(-18.15,0.95,-15.5));
#634=CARTESIAN_POINT('Origin',(-15.5,1.9,-15.5));
#635=CARTESIAN_POINT('Origin',(-15.5,10.,-15.5));
#636=CARTESIAN_POINT('',(-17.2,7.7,-15.5));
#637=CARTESIAN_POINT('',(-17.2,10.,-15.5));
#638=CARTESIAN_POINT('Origin',(-15.5,7.7,-15.5));
#639=CARTESIAN_POINT('Origin',(15.5,0.95,-15.5));
#640=CARTESIAN_POINT('',(13.8,1.9,-15.5));
#641=CARTESIAN_POINT('',(12.85,0.95,-15.5));
#642=CARTESIAN_POINT('Origin',(15.5,1.9,-15.5));
#643=CARTESIAN_POINT('Origin',(15.5,10.,-15.5));
#644=CARTESIAN_POINT('',(13.8,7.7,-15.5));
#645=CARTESIAN_POINT('',(13.8,10.,-15.5));
#646=CARTESIAN_POINT('Origin',(15.5,7.7,-15.5));
#647=CARTESIAN_POINT('Origin',(0.,7.7,0.));
#648=CARTESIAN_POINT('',(-18.45,7.7,-2.25947334442687E-15));
#649=CARTESIAN_POINT('Origin',(0.,7.7,0.));
#650=CARTESIAN_POINT('',(-18.45,3.7,-2.25947334442687E-15));
#651=CARTESIAN_POINT('',(-18.45,7.7,-2.25947334442687E-15));
#652=CARTESIAN_POINT('Origin',(0.,3.7,0.));
#653=CARTESIAN_POINT('Origin',(0.,3.7,0.));
#654=CARTESIAN_POINT('',(-17.5,3.7,2.14313189850787E-15));
#655=CARTESIAN_POINT('Origin',(0.,3.7,0.));
#656=CARTESIAN_POINT('Origin',(0.,0.,0.));
#657=CARTESIAN_POINT('',(-17.5,0.,2.14313189850787E-15));
#658=CARTESIAN_POINT('Origin',(21.15,0.,21.15));
#659=CARTESIAN_POINT('',(21.15,7.7,21.15));
#660=CARTESIAN_POINT('Origin',(0.,7.7,6.66133814775094E-15));
#661=UNCERTAINTY_MEASURE_WITH_UNIT(LENGTH_MEASURE(0.01),#665,
'DISTANCE_ACCURACY_VALUE',
'Maximum model space distance between geometric entities at asserted c
onnectivities');
#662=UNCERTAINTY_MEASURE_WITH_UNIT(LENGTH_MEASURE(0.01),#665,
'DISTANCE_ACCURACY_VALUE',
'Maximum model space distance between geometric entities at asserted c
onnectivities');
#663=(
GEOMETRIC_REPRESENTATION_CONTEXT(3)
GLOBAL_UNCERTAINTY_ASSIGNED_CONTEXT((#661))
GLOBAL_UNIT_ASSIGNED_CONTEXT((#665,#667,#668))
REPRESENTATION_CONTEXT('','3D')
);
#664=(
GEOMETRIC_REPRESENTATION_CONTEXT(3)
GLOBAL_UNCERTAINTY_ASSIGNED_CONTEXT((#662))
GLOBAL_UNIT_ASSIGNED_CONTEXT((#665,#667,#668))
REPRESENTATION_CONTEXT('','3D')
);
#665=(
LENGTH_UNIT()
NAMED_UNIT(*)
SI_UNIT(.MILLI.,.METRE.)
);
#666=(
LENGTH_UNIT()
NAMED_UNIT(*)
SI_UNIT(.CENTI.,.METRE.)
);
#667=(
NAMED_UNIT(*)
PLANE_ANGLE_UNIT()
SI_UNIT($,.RADIAN.)
);
#668=(
NAMED_UNIT(*)
SI_UNIT($,.STERADIAN.)
SOLID_ANGLE_UNIT()
);
#669=SHAPE_DEFINITION_REPRESENTATION(#670,#671);
#670=PRODUCT_DEFINITION_SHAPE('',$,#673);
#671=SHAPE_REPRESENTATION('',(#409),#663);
#672=PRODUCT_DEFINITION_CONTEXT('part definition',#677,'design');
#673=PRODUCT_DEFINITION('cd_deckel-02','lid',#674,#672);
#674=PRODUCT_DEFINITION_FORMATION('',$,#679);
#675=PRODUCT_RELATED_PRODUCT_CATEGORY('lid','lid',(#679));
#676=APPLICATION_PROTOCOL_DEFINITION('international standard',
'automotive_design',2009,#677);
#677=APPLICATION_CONTEXT(
'Core Data for Automotive Mechanical Design Process');
#678=PRODUCT_CONTEXT('part definition',#677,'mechanical');
#679=PRODUCT('cd_deckel-02','lid',$,(#678));
#680=PRESENTATION_STYLE_ASSIGNMENT((#682));
#681=PRESENTATION_STYLE_ASSIGNMENT((#683));
#682=SURFACE_STYLE_USAGE(.BOTH.,#688);
#683=SURFACE_STYLE_USAGE(.BOTH.,#689);
#684=SURFACE_STYLE_RENDERING_WITH_PROPERTIES($,#696,(#686));
#685=SURFACE_STYLE_RENDERING_WITH_PROPERTIES($,#697,(#687));
#686=SURFACE_STYLE_TRANSPARENT(0.);
#687=SURFACE_STYLE_TRANSPARENT(0.);
#688=SURFACE_SIDE_STYLE('',(#690,#684));
#689=SURFACE_SIDE_STYLE('',(#691,#685));
#690=SURFACE_STYLE_FILL_AREA(#692);
#691=SURFACE_STYLE_FILL_AREA(#693);
#692=FILL_AREA_STYLE('',(#694));
#693=FILL_AREA_STYLE('',(#695));
#694=FILL_AREA_STYLE_COLOUR('',#696);
#695=FILL_AREA_STYLE_COLOUR('',#697);
#696=COLOUR_RGB('',0.749019607843137,0.749019607843137,0.749019607843137);
#697=COLOUR_RGB('',0.317647058823529,0.317647058823529,0.317647058823529);
ENDSEC;
END-ISO-10303-21;
